<svg xmlns="http://www.w3.org/2000/svg" fill="none" viewBox="0 0 24 24" height="24" width="24"><g id="dashboard-3--app-application-dashboard-home-layout-vertical"><path id="Vector" stroke="#000" stroke-linecap="round" stroke-linejoin="round" d="M22.285714285714285 11.142857142857142H15.428571428571427c-0.4733828571428571 0 -0.8571428571428571 0.38376 -0.8571428571428571 0.8571428571428571v10.285714285714285c0 0.4733142857142857 0.38376 0.8571428571428571 0.8571428571428571 0.8571428571428571h6.857142857142857c0.4733142857142857 0 0.8571428571428571 -0.3838285714285714 0.8571428571428571 -0.8571428571428571V12c0 -0.4733828571428571 -0.3838285714285714 -0.8571428571428571 -0.8571428571428571 -0.8571428571428571Z" stroke-width="1"></path><path id="Vector_2" stroke="#000" stroke-linecap="round" stroke-linejoin="round" d="M22.285714285714285 0.8571428571428571H15.428571428571427c-0.4733828571428571 0 -0.8571428571428571 0.3837565714285714 -0.8571428571428571 0.8571428571428571v3.4457142857142853c0 0.4733828571428571 0.38376 0.8571428571428571 0.8571428571428571 0.8571428571428571h6.857142857142857c0.4733142857142857 0 0.8571428571428571 -0.38376 0.8571428571428571 -0.8571428571428571V1.7142857142857142c0 -0.4733862857142857 -0.3838285714285714 -0.8571428571428571 -0.8571428571428571 -0.8571428571428571Z" stroke-width="1"></path><path id="Vector_3" stroke="#000" stroke-linecap="round" stroke-linejoin="round" d="M8.571428571428571 0.8571428571428571H1.7142857142857142C1.2408994285714285 0.8571428571428571 0.8571428571428571 1.2408994285714285 0.8571428571428571 1.7142857142857142v10.285714285714285c0 0.4733828571428571 0.3837565714285714 0.8571428571428571 0.8571428571428571 0.8571428571428571h6.857142857142857c0.4733828571428571 0 0.8571428571428571 -0.38376 0.8571428571428571 -0.8571428571428571V1.7142857142857142c0 -0.4733862857142857 -0.38376 -0.8571428571428571 -0.8571428571428571 -0.8571428571428571Z" stroke-width="1"></path><path id="Vector_4" stroke="#000" stroke-linecap="round" stroke-linejoin="round" d="M8.571428571428571 17.982857142857142H1.7142857142857142c-0.4733862857142857 0 -0.8571428571428571 0.3836571428571428 -0.8571428571428571 0.8571428571428571V22.285714285714285c0 0.4733142857142857 0.3837565714285714 0.8571428571428571 0.8571428571428571 0.8571428571428571h6.857142857142857c0.4733828571428571 0 0.8571428571428571 -0.3838285714285714 0.8571428571428571 -0.8571428571428571v-3.4457142857142853c0 -0.4734857142857143 -0.38376 -0.8571428571428571 -0.8571428571428571 -0.8571428571428571Z" stroke-width="1"></path></g></svg>