<svg viewBox="0 0 24 24" xmlns="http://www.w3.org/2000/svg"><path d="m1.5 3.75 21 0" fill="none" stroke="currentcolor" stroke-linecap="round" stroke-linejoin="round" stroke-width="1.5"></path><path d="m1.5 20.25 21 0" fill="none" stroke="currentcolor" stroke-linecap="round" stroke-linejoin="round" stroke-width="1.5"></path><path d="M10.5 8.25v2.55a8.932 8.932 0 0 0 1.5 4.95 8.932 8.932 0 0 0 1.5 -4.95V8.25" fill="none" stroke="currentcolor" stroke-linecap="round" stroke-linejoin="round" stroke-width="1.5"></path><path d="M7.5 8.25H6a1.5 1.5 0 0 0 -1.5 1.5c0 2.25 3 2.25 3 4.5a1.5 1.5 0 0 1 -1.5 1.5H4.5" fill="none" stroke="currentcolor" stroke-linecap="round" stroke-linejoin="round" stroke-width="1.5"></path><path d="M18.75 12.75h0.75v1.5a1.5 1.5 0 0 1 -3 0v-4.5a1.5 1.5 0 0 1 1.5 -1.5h1.5" fill="none" stroke="currentcolor" stroke-linecap="round" stroke-linejoin="round" stroke-width="1.5"></path></svg>